<svg xmlns="http://www.w3.org/2000/svg" width="24" height="24" viewBox="0 0 24 24">
  <rect width="24" height="24" rx="6" fill="#374151"/>
  <path d="M5 8.4A1.4 1.4 0 0 1 6.4 7h11.2A1.4 1.4 0 0 1 19 8.4v2a1.7 1.7 0 0 0 0 3.2v2a1.4 1.4 0 0 1-1.4 1.4H6.4A1.4 1.4 0 0 1 5 15.6v-2a1.7 1.7 0 0 0 0-3.2z" fill="#FFFFFF"/>
  <rect x="14.3" y="8.2" width="1" height="1.6" rx="0.5" fill="#374151"/>
  <rect x="14.3" y="11.2" width="1" height="1.6" rx="0.5" fill="#374151"/>
  <rect x="14.3" y="14.2" width="1" height="1.6" rx="0.5" fill="#374151"/>
  <circle cx="8.4" cy="10.2" r="1.05" fill="#374151"/>
  <circle cx="11.4" cy="13.8" r="1.05" fill="#374151"/>
  <path d="M11.6 9.6L8.2 14.4" stroke="#374151" stroke-width="1.2" stroke-linecap="round"/>
</svg>
