<svg xmlns="http://www.w3.org/2000/svg" width="160" height="120" viewBox="0 0 160 120">
  <ellipse cx="80" cy="106" rx="46" ry="6" fill="#000000" fill-opacity="0.08"/>
  <circle cx="80" cy="58" r="44" fill="#FFF5F2"/>
  <g stroke="#0B2E13" stroke-width="3" stroke-linecap="round" stroke-linejoin="round">
    <path d="M62 94V98M98 94V98" fill="none"/>
    <rect x="56" y="42" width="48" height="16" rx="4" fill="#FFFFFF"/>
    <rect x="56" y="60" width="48" height="16" rx="4" fill="#FFFFFF"/>
    <rect x="56" y="78" width="48" height="16" rx="4" fill="#FFFFFF"/>
    <path d="M82 50H96M82 68H96M82 86H96" fill="none" stroke-width="2.5"/>
  </g>
  <g stroke="#0B2E13" stroke-width="2">
    <circle cx="64" cy="50" r="2.6" fill="#22C55E"/>
    <circle cx="71.5" cy="50" r="2.6" fill="#22C55E"/>
    <circle cx="64" cy="68" r="2.6" fill="#22C55E"/>
    <circle cx="71.5" cy="68" r="2.6" fill="#FBBF24"/>
    <circle cx="71.5" cy="86" r="2.6" fill="#C2C2C2"/>
  </g>
  <circle cx="116" cy="30" r="13" fill="#F0390E" stroke="#0B2E13" stroke-width="3"/>
  <path d="M116 23V31" stroke="#FFFFFF" stroke-width="3" stroke-linecap="round"/>
  <circle cx="116" cy="36.5" r="1.8" fill="#FFFFFF"/>
  <g id="part-led">
    <circle cx="64" cy="86" r="5.5" fill="none" stroke="#FF5324" stroke-width="1.5"/>
    <circle cx="64" cy="86" r="2.6" fill="#F0390E" stroke="#0B2E13" stroke-width="2"/>
  </g>
  <g id="part-smoke" fill="#EBEBEB" stroke="#0B2E13" stroke-linejoin="round">
    <path d="M70 38H86A5 5 0 0 0 85 28.2A7 7 0 0 0 72 27.4A5.4 5.4 0 0 0 70 38Z" stroke-width="2.5"/>
    <circle cx="90" cy="21" r="3.6" stroke-width="2"/>
    <circle cx="95.5" cy="13.5" r="2.2" stroke-width="2"/>
  </g>
</svg>
